<mxfile host="app.diagrams.net" agent="Mozilla/5.0 (Windows NT 10.0; Win64; x64) AppleWebKit/537.36 (KHTML, like Gecko) Chrome/138.0.0.0 Safari/537.36" version="26.1.3">
  <diagram id="C5RBs43oDa-KdzZeNtuy" name="Page-1">
    <mxGraphModel dx="2442" dy="1946" grid="1" gridSize="10" guides="1" tooltips="1" connect="1" arrows="1" fold="1" page="1" pageScale="1" pageWidth="827" pageHeight="1169" math="0" shadow="0">
      <root>
        <mxCell id="WIyWlLk6GJQsqaUBKTNV-0" />
        <mxCell id="WIyWlLk6GJQsqaUBKTNV-1" parent="WIyWlLk6GJQsqaUBKTNV-0" />
        <mxCell id="deosc8CdUkbicf_GpzMJ-1" value="&lt;font style=&quot;font-size: 30px;&quot;&gt;decode&lt;/font&gt;" style="rounded=0;whiteSpace=wrap;html=1;" vertex="1" parent="WIyWlLk6GJQsqaUBKTNV-1">
          <mxGeometry x="235" y="-150" width="240" height="60" as="geometry" />
        </mxCell>
        <mxCell id="deosc8CdUkbicf_GpzMJ-2" value="&lt;font style=&quot;font-size: 30px;&quot;&gt;get&lt;/font&gt;" style="rounded=0;whiteSpace=wrap;html=1;" vertex="1" parent="WIyWlLk6GJQsqaUBKTNV-1">
          <mxGeometry x="230" y="-460" width="260" height="60" as="geometry" />
        </mxCell>
        <mxCell id="deosc8CdUkbicf_GpzMJ-43" value="" style="edgeStyle=orthogonalEdgeStyle;rounded=0;orthogonalLoop=1;jettySize=auto;html=1;" edge="1" parent="WIyWlLk6GJQsqaUBKTNV-1" source="deosc8CdUkbicf_GpzMJ-3" target="deosc8CdUkbicf_GpzMJ-41">
          <mxGeometry relative="1" as="geometry">
            <mxPoint x="250" y="1110" as="targetPoint" />
          </mxGeometry>
        </mxCell>
        <mxCell id="deosc8CdUkbicf_GpzMJ-3" value="" style="rhombus;whiteSpace=wrap;html=1;" vertex="1" parent="WIyWlLk6GJQsqaUBKTNV-1">
          <mxGeometry x="215" y="1010" width="250" height="240" as="geometry" />
        </mxCell>
        <mxCell id="deosc8CdUkbicf_GpzMJ-42" value="" style="edgeStyle=orthogonalEdgeStyle;rounded=0;orthogonalLoop=1;jettySize=auto;html=1;" edge="1" parent="WIyWlLk6GJQsqaUBKTNV-1" source="deosc8CdUkbicf_GpzMJ-4" target="deosc8CdUkbicf_GpzMJ-40">
          <mxGeometry relative="1" as="geometry" />
        </mxCell>
        <mxCell id="deosc8CdUkbicf_GpzMJ-4" value="" style="rhombus;whiteSpace=wrap;html=1;" vertex="1" parent="WIyWlLk6GJQsqaUBKTNV-1">
          <mxGeometry x="230" y="695" width="250" height="245" as="geometry" />
        </mxCell>
        <mxCell id="deosc8CdUkbicf_GpzMJ-5" value="" style="rhombus;whiteSpace=wrap;html=1;" vertex="1" parent="WIyWlLk6GJQsqaUBKTNV-1">
          <mxGeometry x="230" y="390" width="250" height="240" as="geometry" />
        </mxCell>
        <mxCell id="deosc8CdUkbicf_GpzMJ-9" value="&lt;font style=&quot;font-size: 30px;&quot;&gt;forward&lt;/font&gt;" style="rounded=0;whiteSpace=wrap;html=1;" vertex="1" parent="WIyWlLk6GJQsqaUBKTNV-1">
          <mxGeometry x="210" y="1480" width="240" height="110" as="geometry" />
        </mxCell>
        <mxCell id="deosc8CdUkbicf_GpzMJ-18" value="" style="endArrow=classic;html=1;rounded=0;entryX=0.5;entryY=0;entryDx=0;entryDy=0;exitX=0.563;exitY=0.625;exitDx=0;exitDy=0;exitPerimeter=0;" edge="1" parent="WIyWlLk6GJQsqaUBKTNV-1" source="deosc8CdUkbicf_GpzMJ-105" target="deosc8CdUkbicf_GpzMJ-2">
          <mxGeometry width="50" height="50" relative="1" as="geometry">
            <mxPoint x="360" as="sourcePoint" />
            <mxPoint x="320" y="120" as="targetPoint" />
          </mxGeometry>
        </mxCell>
        <mxCell id="deosc8CdUkbicf_GpzMJ-19" value="" style="endArrow=classic;html=1;rounded=0;exitX=0.419;exitY=1.044;exitDx=0;exitDy=0;exitPerimeter=0;entryX=0.436;entryY=0.067;entryDx=0;entryDy=0;entryPerimeter=0;" edge="1" parent="WIyWlLk6GJQsqaUBKTNV-1" source="deosc8CdUkbicf_GpzMJ-2" target="deosc8CdUkbicf_GpzMJ-1">
          <mxGeometry width="50" height="50" relative="1" as="geometry">
            <mxPoint x="290" y="380" as="sourcePoint" />
            <mxPoint x="340" y="330" as="targetPoint" />
          </mxGeometry>
        </mxCell>
        <mxCell id="deosc8CdUkbicf_GpzMJ-22" value="" style="endArrow=classic;html=1;rounded=0;entryX=0.5;entryY=0;entryDx=0;entryDy=0;" edge="1" parent="WIyWlLk6GJQsqaUBKTNV-1" source="deosc8CdUkbicf_GpzMJ-5" target="deosc8CdUkbicf_GpzMJ-4">
          <mxGeometry width="50" height="50" relative="1" as="geometry">
            <mxPoint x="340" y="860" as="sourcePoint" />
            <mxPoint x="350" y="820" as="targetPoint" />
          </mxGeometry>
        </mxCell>
        <mxCell id="deosc8CdUkbicf_GpzMJ-23" value="" style="endArrow=classic;html=1;rounded=0;" edge="1" parent="WIyWlLk6GJQsqaUBKTNV-1" source="deosc8CdUkbicf_GpzMJ-4" target="deosc8CdUkbicf_GpzMJ-3">
          <mxGeometry width="50" height="50" relative="1" as="geometry">
            <mxPoint x="300" y="1040" as="sourcePoint" />
            <mxPoint x="350" y="990" as="targetPoint" />
          </mxGeometry>
        </mxCell>
        <mxCell id="deosc8CdUkbicf_GpzMJ-26" value="" style="endArrow=classic;html=1;rounded=0;" edge="1" parent="WIyWlLk6GJQsqaUBKTNV-1" source="deosc8CdUkbicf_GpzMJ-9" target="deosc8CdUkbicf_GpzMJ-14">
          <mxGeometry width="50" height="50" relative="1" as="geometry">
            <mxPoint x="340" y="1800" as="sourcePoint" />
            <mxPoint x="350" y="1410" as="targetPoint" />
          </mxGeometry>
        </mxCell>
        <mxCell id="deosc8CdUkbicf_GpzMJ-28" value="&lt;font style=&quot;font-size: 30px;&quot;&gt;ack bucket&lt;/font&gt;&lt;div&gt;&lt;font style=&quot;font-size: 20px;&quot;&gt;&lt;br&gt;&lt;/font&gt;&lt;/div&gt;" style="text;html=1;align=center;verticalAlign=middle;whiteSpace=wrap;rounded=0;" vertex="1" parent="WIyWlLk6GJQsqaUBKTNV-1">
          <mxGeometry x="290" y="485" width="150" height="90" as="geometry" />
        </mxCell>
        <mxCell id="deosc8CdUkbicf_GpzMJ-30" value="" style="shape=cylinder3;whiteSpace=wrap;html=1;boundedLbl=1;backgroundOutline=1;size=14.142944335937614;" vertex="1" parent="WIyWlLk6GJQsqaUBKTNV-1">
          <mxGeometry x="340" y="540" width="40" height="60" as="geometry" />
        </mxCell>
        <mxCell id="deosc8CdUkbicf_GpzMJ-31" value="&lt;font style=&quot;font-size: 30px;&quot;&gt;cache bucket&lt;/font&gt;&lt;div&gt;&lt;font style=&quot;font-size: 20px;&quot;&gt;&lt;br&gt;&lt;/font&gt;&lt;/div&gt;" style="text;html=1;align=center;verticalAlign=middle;whiteSpace=wrap;rounded=0;" vertex="1" parent="WIyWlLk6GJQsqaUBKTNV-1">
          <mxGeometry x="280" y="700" width="150" height="180" as="geometry" />
        </mxCell>
        <mxCell id="deosc8CdUkbicf_GpzMJ-32" value="&lt;font style=&quot;font-size: 30px;&quot;&gt;relation chk&lt;/font&gt;" style="text;html=1;align=center;verticalAlign=middle;whiteSpace=wrap;rounded=0;" vertex="1" parent="WIyWlLk6GJQsqaUBKTNV-1">
          <mxGeometry x="285" y="1100" width="110" height="75" as="geometry" />
        </mxCell>
        <mxCell id="deosc8CdUkbicf_GpzMJ-40" value="&lt;font style=&quot;font-size: 40px;&quot;&gt;end&lt;/font&gt;" style="ellipse;whiteSpace=wrap;html=1;" vertex="1" parent="WIyWlLk6GJQsqaUBKTNV-1">
          <mxGeometry y="777.5" width="120" height="80" as="geometry" />
        </mxCell>
        <mxCell id="deosc8CdUkbicf_GpzMJ-41" value="&lt;font style=&quot;font-size: 40px;&quot;&gt;end&lt;/font&gt;" style="ellipse;whiteSpace=wrap;html=1;" vertex="1" parent="WIyWlLk6GJQsqaUBKTNV-1">
          <mxGeometry y="1090" width="120" height="80" as="geometry" />
        </mxCell>
        <mxCell id="deosc8CdUkbicf_GpzMJ-47" value="" style="edgeStyle=orthogonalEdgeStyle;rounded=0;orthogonalLoop=1;jettySize=auto;html=1;" edge="1" parent="WIyWlLk6GJQsqaUBKTNV-1" source="deosc8CdUkbicf_GpzMJ-44" target="deosc8CdUkbicf_GpzMJ-46">
          <mxGeometry relative="1" as="geometry" />
        </mxCell>
        <mxCell id="deosc8CdUkbicf_GpzMJ-48" style="edgeStyle=orthogonalEdgeStyle;rounded=0;orthogonalLoop=1;jettySize=auto;html=1;" edge="1" parent="WIyWlLk6GJQsqaUBKTNV-1" source="deosc8CdUkbicf_GpzMJ-44" target="deosc8CdUkbicf_GpzMJ-4">
          <mxGeometry relative="1" as="geometry">
            <mxPoint x="509.98" y="550" as="targetPoint" />
            <mxPoint x="140.00439024390263" y="490" as="sourcePoint" />
            <Array as="points">
              <mxPoint x="-20" y="520" />
              <mxPoint x="-20" y="2050" />
              <mxPoint x="610" y="2050" />
              <mxPoint x="610" y="878" />
            </Array>
          </mxGeometry>
        </mxCell>
        <mxCell id="deosc8CdUkbicf_GpzMJ-44" value="&lt;font style=&quot;font-size: 30px;&quot;&gt;confirm&lt;/font&gt;" style="whiteSpace=wrap;html=1;" vertex="1" parent="WIyWlLk6GJQsqaUBKTNV-1">
          <mxGeometry x="-280" y="475" width="280" height="60" as="geometry" />
        </mxCell>
        <mxCell id="deosc8CdUkbicf_GpzMJ-46" value="&lt;font style=&quot;font-size: 40px;&quot;&gt;end&lt;/font&gt;" style="ellipse;whiteSpace=wrap;html=1;" vertex="1" parent="WIyWlLk6GJQsqaUBKTNV-1">
          <mxGeometry x="-520" y="465" width="120" height="80" as="geometry" />
        </mxCell>
        <mxCell id="deosc8CdUkbicf_GpzMJ-54" value="&lt;font style=&quot;font-size: 20px;&quot;&gt;add to cache&lt;/font&gt;" style="text;html=1;align=center;verticalAlign=middle;whiteSpace=wrap;rounded=0;rotation=270;" vertex="1" parent="WIyWlLk6GJQsqaUBKTNV-1">
          <mxGeometry x="-170" y="1950" width="360" height="30" as="geometry" />
        </mxCell>
        <mxCell id="deosc8CdUkbicf_GpzMJ-14" value="&lt;font style=&quot;font-size: 40px;&quot;&gt;end&lt;/font&gt;" style="ellipse;whiteSpace=wrap;html=1;" vertex="1" parent="WIyWlLk6GJQsqaUBKTNV-1">
          <mxGeometry x="280" y="1920" width="120" height="80" as="geometry" />
        </mxCell>
        <mxCell id="deosc8CdUkbicf_GpzMJ-77" value="" style="endArrow=classic;html=1;rounded=0;entryX=1;entryY=0.5;entryDx=0;entryDy=0;" edge="1" parent="WIyWlLk6GJQsqaUBKTNV-1" source="deosc8CdUkbicf_GpzMJ-5" target="deosc8CdUkbicf_GpzMJ-44">
          <mxGeometry width="50" height="50" relative="1" as="geometry">
            <mxPoint x="220" y="620" as="sourcePoint" />
            <mxPoint x="270" y="570" as="targetPoint" />
          </mxGeometry>
        </mxCell>
        <mxCell id="deosc8CdUkbicf_GpzMJ-87" value="The &quot;Cache bucket&quot; is a short-term memory of recently processed items.Saves time by &lt;span data-end=&quot;1813&quot; data-start=&quot;1781&quot;&gt;quickly rejecting duplicates&lt;/span&gt; without going through heavy processing." style="text;html=1;align=center;verticalAlign=middle;whiteSpace=wrap;rounded=0;fontSize=30;labelBorderColor=default;" vertex="1" parent="WIyWlLk6GJQsqaUBKTNV-1">
          <mxGeometry x="-680" y="690" width="630" height="190" as="geometry" />
        </mxCell>
        <mxCell id="deosc8CdUkbicf_GpzMJ-89" value="&lt;font style=&quot;font-size: 30px;&quot;&gt;Checking if the sender is authorized or related to you.Avoids processing messages &lt;span style=&quot;&quot; data-end=&quot;2516&quot; data-start=&quot;2495&quot;&gt;&lt;font style=&quot;&quot;&gt;not meant &lt;/font&gt;&lt;/span&gt;&lt;span style=&quot;&quot; data-end=&quot;2516&quot; data-start=&quot;2495&quot;&gt;for you&lt;/span&gt;.&lt;/font&gt;" style="text;html=1;align=center;verticalAlign=middle;whiteSpace=wrap;rounded=0;labelBorderColor=default;" vertex="1" parent="WIyWlLk6GJQsqaUBKTNV-1">
          <mxGeometry x="-660" y="1070" width="520" height="160" as="geometry" />
        </mxCell>
        <mxCell id="deosc8CdUkbicf_GpzMJ-91" value="&lt;font style=&quot;font-size: 30px;&quot;&gt;The &quot;ACK bucket&quot; is a list or storage of items that have already been &lt;span style=&quot;&quot; data-end=&quot;999&quot; data-start=&quot;983&quot;&gt;acknowledged&lt;/span&gt; (confirmed) by the system. use To &lt;span style=&quot;&quot; data-end=&quot;1181&quot; data-start=&quot;1159&quot;&gt;avoid reprocessing&lt;/span&gt; items that you’ve already handled.&lt;/font&gt;" style="text;html=1;align=center;verticalAlign=middle;whiteSpace=wrap;rounded=0;labelBorderColor=default;" vertex="1" parent="WIyWlLk6GJQsqaUBKTNV-1">
          <mxGeometry x="475" y="120" width="700" height="550" as="geometry" />
        </mxCell>
        <mxCell id="deosc8CdUkbicf_GpzMJ-92" value="&lt;font style=&quot;font-size: 30px;&quot;&gt;No&lt;/font&gt;" style="text;html=1;align=center;verticalAlign=middle;whiteSpace=wrap;rounded=0;" vertex="1" parent="WIyWlLk6GJQsqaUBKTNV-1">
          <mxGeometry x="370" y="640" width="60" height="30" as="geometry" />
        </mxCell>
        <mxCell id="deosc8CdUkbicf_GpzMJ-95" value="&lt;font style=&quot;font-size: 30px;&quot;&gt;Yes&lt;/font&gt;" style="text;html=1;align=center;verticalAlign=middle;whiteSpace=wrap;rounded=0;" vertex="1" parent="WIyWlLk6GJQsqaUBKTNV-1">
          <mxGeometry x="50" y="470" width="60" height="30" as="geometry" />
        </mxCell>
        <mxCell id="deosc8CdUkbicf_GpzMJ-105" value="" style="ellipse;whiteSpace=wrap;html=1;aspect=fixed;labelBackgroundColor=#000000;fillColor=#000000;" vertex="1" parent="WIyWlLk6GJQsqaUBKTNV-1">
          <mxGeometry x="315" y="-680" width="80" height="80" as="geometry" />
        </mxCell>
        <mxCell id="deosc8CdUkbicf_GpzMJ-108" value="" style="edgeStyle=orthogonalEdgeStyle;rounded=0;orthogonalLoop=1;jettySize=auto;html=1;exitX=0.5;exitY=1;exitDx=0;exitDy=0;" edge="1" parent="WIyWlLk6GJQsqaUBKTNV-1" source="deosc8CdUkbicf_GpzMJ-31" target="deosc8CdUkbicf_GpzMJ-29">
          <mxGeometry relative="1" as="geometry">
            <mxPoint x="355" y="880" as="sourcePoint" />
            <mxPoint x="355" y="880" as="targetPoint" />
          </mxGeometry>
        </mxCell>
        <mxCell id="deosc8CdUkbicf_GpzMJ-29" value="" style="shape=cylinder3;whiteSpace=wrap;html=1;boundedLbl=1;backgroundOutline=1;size=15;" vertex="1" parent="WIyWlLk6GJQsqaUBKTNV-1">
          <mxGeometry x="330" y="840" width="40" height="60" as="geometry" />
        </mxCell>
        <mxCell id="deosc8CdUkbicf_GpzMJ-112" value="&lt;font style=&quot;font-size: 30px;&quot;&gt;Yes&lt;/font&gt;" style="text;html=1;align=center;verticalAlign=middle;whiteSpace=wrap;rounded=0;" vertex="1" parent="WIyWlLk6GJQsqaUBKTNV-1">
          <mxGeometry x="150" y="770" width="60" height="30" as="geometry" />
        </mxCell>
        <mxCell id="deosc8CdUkbicf_GpzMJ-113" value="&lt;font style=&quot;font-size: 30px;&quot;&gt;No&lt;/font&gt;" style="text;html=1;align=center;verticalAlign=middle;whiteSpace=wrap;rounded=0;" vertex="1" parent="WIyWlLk6GJQsqaUBKTNV-1">
          <mxGeometry x="360" y="950" width="60" height="30" as="geometry" />
        </mxCell>
        <mxCell id="deosc8CdUkbicf_GpzMJ-114" value="&lt;font style=&quot;font-size: 30px;&quot;&gt;Yes&lt;/font&gt;" style="text;html=1;align=center;verticalAlign=middle;whiteSpace=wrap;rounded=0;" vertex="1" parent="WIyWlLk6GJQsqaUBKTNV-1">
          <mxGeometry x="354" y="1290" width="60" height="30" as="geometry" />
        </mxCell>
        <mxCell id="deosc8CdUkbicf_GpzMJ-115" value="&lt;font style=&quot;font-size: 30px;&quot;&gt;No&lt;/font&gt;" style="text;html=1;align=center;verticalAlign=middle;whiteSpace=wrap;rounded=0;" vertex="1" parent="WIyWlLk6GJQsqaUBKTNV-1">
          <mxGeometry x="150" y="1080" width="60" height="30" as="geometry" />
        </mxCell>
        <mxCell id="deosc8CdUkbicf_GpzMJ-118" value="&lt;li data-end=&quot;1819&quot; data-start=&quot;1739&quot;&gt;&lt;p data-end=&quot;1819&quot; data-start=&quot;1741&quot;&gt;&lt;font style=&quot;font-size: 30px;&quot;&gt;&lt;strong style=&quot;&quot; data-end=&quot;44&quot; data-start=&quot;33&quot;&gt;Forward&lt;/strong&gt; = deliver the message to all the destinations it needs to reach.&lt;br data-is-only-node=&quot;&quot; data-end=&quot;112&quot; data-start=&quot;109&quot;&gt;&lt;br/&gt;&lt;strong style=&quot;&quot; data-end=&quot;133&quot; data-start=&quot;112&quot;&gt;Add to ACK Bucket&lt;/strong&gt; = record that the forwarded message has been sent so it can be tracked for acknowledgment and not sent again unnecessarily.&lt;/font&gt;&lt;/p&gt;&lt;/li&gt;" style="text;html=1;align=center;verticalAlign=middle;whiteSpace=wrap;rounded=0;labelBorderColor=default;" vertex="1" parent="WIyWlLk6GJQsqaUBKTNV-1">
          <mxGeometry x="-750" y="1400" width="700" height="350" as="geometry" />
        </mxCell>
        <mxCell id="deosc8CdUkbicf_GpzMJ-125" value="" style="endArrow=classic;html=1;rounded=0;" edge="1" parent="WIyWlLk6GJQsqaUBKTNV-1" source="deosc8CdUkbicf_GpzMJ-1" target="deosc8CdUkbicf_GpzMJ-5">
          <mxGeometry width="50" height="50" relative="1" as="geometry">
            <mxPoint x="355" y="140" as="sourcePoint" />
            <mxPoint x="550" y="150" as="targetPoint" />
          </mxGeometry>
        </mxCell>
        <mxCell id="deosc8CdUkbicf_GpzMJ-134" value="" style="endArrow=classic;html=1;rounded=0;entryX=0.566;entryY=0.018;entryDx=0;entryDy=0;entryPerimeter=0;" edge="1" parent="WIyWlLk6GJQsqaUBKTNV-1" source="deosc8CdUkbicf_GpzMJ-3" target="deosc8CdUkbicf_GpzMJ-9">
          <mxGeometry width="50" height="50" relative="1" as="geometry">
            <mxPoint x="350.2377582790823" y="1520" as="sourcePoint" />
            <mxPoint x="430" y="1610" as="targetPoint" />
          </mxGeometry>
        </mxCell>
        <mxCell id="deosc8CdUkbicf_GpzMJ-142" value="" style="endArrow=classic;html=1;rounded=0;" edge="1" parent="WIyWlLk6GJQsqaUBKTNV-1" source="deosc8CdUkbicf_GpzMJ-9" target="deosc8CdUkbicf_GpzMJ-5">
          <mxGeometry width="50" height="50" relative="1" as="geometry">
            <mxPoint x="450" y="1535" as="sourcePoint" />
            <mxPoint x="480" y="510" as="targetPoint" />
            <Array as="points">
              <mxPoint x="740" y="1535" />
              <mxPoint x="730" y="1150" />
              <mxPoint x="730" y="510" />
            </Array>
          </mxGeometry>
        </mxCell>
        <mxCell id="deosc8CdUkbicf_GpzMJ-65" value="&lt;font style=&quot;font-size: 20px;&quot;&gt;add to ACK&lt;/font&gt;" style="text;html=1;align=center;verticalAlign=middle;whiteSpace=wrap;rounded=0;rotation=0;" vertex="1" parent="WIyWlLk6GJQsqaUBKTNV-1">
          <mxGeometry x="395" y="520" width="360" height="30" as="geometry" />
        </mxCell>
      </root>
    </mxGraphModel>
  </diagram>
</mxfile>
